<svg xmlns="http://www.w3.org/2000/svg" viewBox="0 0 1280 720" role="img" aria-labelledby="title desc">
  <title id="title">现实照片占位图</title>
  <desc id="desc">用于实地照片上传前的占位图</desc>
  <defs>
    <linearGradient id="bg" x1="0" x2="1" y1="0" y2="1">
      <stop offset="0%" stop-color="#ecfeff"/>
      <stop offset="48%" stop-color="#dff7ea"/>
      <stop offset="100%" stop-color="#fff7ed"/>
    </linearGradient>
    <linearGradient id="sea" x1="0" x2="1" y1="0" y2="0">
      <stop offset="0%" stop-color="#7dd3fc"/>
      <stop offset="100%" stop-color="#5eead4"/>
    </linearGradient>
  </defs>
  <rect width="1280" height="720" fill="url(#bg)"/>
  <path d="M0 426 C188 378 335 454 548 410 C748 369 888 438 1086 397 C1166 381 1225 386 1280 405 L1280 720 L0 720 Z" fill="url(#sea)" opacity="0.8"/>
  <path d="M0 580 C256 520 490 530 740 586 C950 634 1110 626 1280 576 L1280 720 L0 720 Z" fill="#fde68a" opacity="0.9"/>
  <rect x="276" y="210" width="728" height="300" rx="30" fill="#ffffff" opacity="0.72"/>
  <rect x="318" y="252" width="644" height="216" rx="22" fill="none" stroke="#0284c7" stroke-width="4" stroke-dasharray="18 18" opacity="0.8"/>
  <circle cx="434" cy="340" r="40" fill="#38bdf8" opacity="0.76"/>
  <path d="M372 434 L516 348 L620 420 L700 372 L888 434 Z" fill="#0f766e" opacity="0.42"/>
  <text x="640" y="560" text-anchor="middle" fill="#0f172a" font-family="Arial, 'Hiragino Sans GB', sans-serif" font-size="40" font-weight="700">现实照片预留位</text>
  <text x="640" y="612" text-anchor="middle" fill="#475569" font-family="Arial, 'Hiragino Sans GB', sans-serif" font-size="24">后续替换为实地拍摄照片</text>
</svg>
